<svg viewBox="0 0 100 100" xmlns="http://www.w3.org/2000/svg" width="100" height="100"><g visibility="hidden"><circle strokeMiterlimit="10" strokeLinejoin="round" strokeWidth="5" stroke="#000" fill="#455252" r="38.5" cy="50" cx="50"/><set id="0" attributeName="visibility" attributeType="CSS" to="visible" begin="0s;7.end" dur="0.75s"/></g><g strokeMiterlimit="10" strokeLinejoin="round" strokeWidth="5" stroke="#000" visibility="hidden"><circle fill="#efe450" r="38.5" cy="50" cx="50"/><path fill="#455252" d="M69.5 50c0 18-12.3 33.1-29 37.3.7.2 1.4.3 2.1.5-17.7-3.4-31.1-19-31.1-37.8 0-18.7 13.4-34.3 31.1-37.8-.7.1-1.4.3-2.1.5 16.7 4.2 29 19.3 29 37.3z"/><set id="1" attributeName="visibility" attributeType="CSS" to="visible" begin="0.end" dur="0.75s"/></g><g strokeMiterlimit="10" strokeWidth="5" stroke="#000" visibility="hidden"><circle fill="#efe450" r="38.5" cy="50" cx="50"/><path fill="#455252" d="M11.5 50c0 21.3 17.2 38.5 38.5 38.5v-77c-21.3 0-38.5 17.2-38.5 38.5z"/><set id="2" attributeName="visibility" attributeType="CSS" to="visible" begin="1.end" dur="0.75s"/></g><g strokeMiterlimit="10" strokeLinejoin="round" strokeWidth="5" stroke="#000" visibility="hidden"><circle fill="#efe450" r="38.5" cy="50" cx="50"/><path fill="#455252" d="M30.5 50c0-18 12.3-33.1 29-37.3-3-.8-6.2-1.2-9.5-1.2-21.3 0-38.5 17.2-38.5 38.5S28.7 88.5 50 88.5c3.3 0 6.5-.4 9.5-1.2-16.7-4.2-29-19.3-29-37.3z"/><set id="3" attributeName="visibility" attributeType="CSS" to="visible" begin="2.end" dur="0.75s"/></g><g visibility="hidden"><circle strokeMiterlimit="10" strokeLinejoin="round" strokeWidth="5" stroke="#1a1a1a" fill="#efe450" r="38.5" cy="50" cx="50"/><set id="4" attributeName="visibility" attributeType="CSS" to="visible" begin="3.end" dur="0.75s"/></g><g strokeMiterlimit="10" strokeLinejoin="round" strokeWidth="props.strokeWidth" stroke="#000" visibility="hidden"><circle fill="#455252" r="38.5" cy="50" cx="50"/><path fill="#efe450" d="M69.5 50c0 18-12.3 33.1-29 37.3.7.2 1.4.3 2.1.5-17.7-3.4-31.1-19-31.1-37.8 0-18.7 13.4-34.3 31.1-37.8-.7.1-1.4.3-2.1.5 16.7 4.2 29 19.3 29 37.3z"/><set id="5" attributeName="visibility" attributeType="CSS" to="visible" begin="4.end" dur="0.75s"/></g><g strokeMiterlimit="10" strokeWidth="5" stroke="#000" visibility="hidden"><circle fill="#455252" r="38.5" cy="50" cx="50"/><path fill="#efe450" d="M11.5 50c0 21.3 17.2 38.5 38.5 38.5v-77c-21.3 0-38.5 17.2-38.5 38.5z"/><set id="6" attributeName="visibility" attributeType="CSS" to="visible" begin="5.end" dur="0.75s"/></g><g strokeMiterlimit="10" strokeLinejoin="round" strokeWidth="5" stroke="#000" visibility="hidden"><circle fill="#455252" r="38.5" cy="50" cx="50.4"/><path fill="#efe450" d="M30.5 50c0-18 12.3-33.1 29-37.3-3-.8-6.2-1.2-9.5-1.2-21.3 0-38.5 17.2-38.5 38.5S28.7 88.5 50 88.5c3.3 0 6.5-.4 9.5-1.2-16.7-4.2-29-19.3-29-37.3z"/><set id="7" attributeName="visibility" attributeType="CSS" to="visible" begin="6.end" dur="0.75s"/></g></svg>